<svg width="643" height="502" viewBox="0 0 643 502" fill="none" xmlns="http://www.w3.org/2000/svg">
<g clip-path="url(#clip0)">
<path d="M240.606 210.096C240.606 210.096 293.327 213.251 296.503 236.118C299.679 258.986 234.889 238.484 234.889 238.484L240.606 210.096Z" fill="#A0616A"/>
<path d="M157.396 137.55C157.396 137.55 166.289 140.704 173.276 159.629C180.263 178.554 194.237 195.903 194.237 195.903L250.769 209.308L241.241 244.793L187.25 236.119L153.585 212.462L157.396 137.55Z" fill="#575A89"/>
<path opacity="0.1" d="M157.396 137.55C157.396 137.55 166.289 140.704 173.276 159.629C180.263 178.554 194.237 195.903 194.237 195.903L250.769 209.308L241.241 244.793L187.25 236.119L153.585 212.462L157.396 137.55Z" fill="black"/>
<path d="M590.279 73.2832H523.584V74.8603H590.279V73.2832Z" fill="#3F3D56"/>
<path d="M471.498 73.2832H259.979V74.8603H471.498V73.2832Z" fill="#3F3D56"/>
<path d="M520.408 263.323H19.2419V500.677H520.408V263.323Z" fill="#3F3D56"/>
<path d="M73.5508 101.276L79.2675 146.224L118.649 148.589L114.203 82.3513L73.5508 101.276Z" fill="#A0616A"/>
<path d="M31.9457 401.319L30.0402 500.677H89.7482L98.6408 461.249L105.628 500.677H167.877C167.877 500.677 169.147 387.126 162.16 386.337C155.173 385.548 31.9457 401.319 31.9457 401.319Z" fill="#2F2E41"/>
<path d="M86.2546 113.105C105.198 113.105 120.555 94.0405 120.555 70.5233C120.555 47.0061 105.198 27.9417 86.2546 27.9417C67.311 27.9417 51.9542 47.0061 51.9542 70.5233C51.9542 94.0405 67.311 113.105 86.2546 113.105Z" fill="#A0616A"/>
<path d="M28.4522 405.656L46.2376 296.837L22.7355 152.532L76.8629 127.318L103.405 123.356L116.748 120.264L126.272 123.356C126.272 123.356 164.383 135.184 166.289 143.858C168.194 152.532 158.666 223.502 158.666 223.502L149.774 281.854L169.465 386.731C169.465 386.731 87.525 421.427 29.7226 405.656H28.4522Z" fill="#575A89"/>
<path opacity="0.1" d="M52.2719 192.354V221.53L127.219 221.657L56.083 212.068L52.2719 192.354Z" fill="black"/>
<path opacity="0.1" d="M45.8348 272.932L139.928 256.226L45.8348 289.311V272.932Z" fill="black"/>
<path opacity="0.1" d="M195.19 196.297L185.102 241.421L202.177 197.785L195.19 196.297Z" fill="black"/>
<path d="M114.483 27.8184L120.791 24.6835C120.791 24.6835 107.602 6.65832 89.253 8.22581L94.4138 1.17239C94.4138 1.17239 81.7988 -5.09719 70.3307 11.3605C64.3021 20.012 57.3269 30.1814 52.9787 41.637H46.2238L49.043 49.3434L39.1757 57.0498L49.3035 55.6656C48.7 59.8857 48.6074 64.194 49.0287 68.448C49.4632 72.7034 51.2124 76.5828 53.9072 79.2674V79.2674C53.9072 79.2674 61.7296 59.1664 61.7296 56.0316V63.8687C61.7296 63.8687 68.0371 56.8154 68.0371 52.1132L71.4775 57.5991L73.1977 48.9783L94.4138 57.5991L90.9734 50.5458L104.162 52.8969L99.001 44.2761C99.001 44.2761 113.91 54.4642 114.483 63.085C115.056 71.7057 119.42 79.8743 119.42 79.8743C119.42 79.8743 131.112 39.5739 114.483 27.8184Z" fill="#2F2E41"/>
<path d="M392.099 185.257H148.186V501.465H392.099V185.257Z" fill="#D0CDE1"/>
<path d="M353.988 254.649H173.594V286.191H353.988V254.649Z" fill="#F9A826"/>
<path d="M322.748 338.236H204.606V354.007H322.748V338.236Z" fill="#F9A826"/>
<path d="M322.976 365.835H204.834V381.606H322.976V365.835Z" fill="#F9A826"/>
<path d="M264.133 393.434H205.062V409.205H264.133V393.434Z" fill="#F9A826"/>
<path d="M357.164 473.077H329.851V488.848H357.164V473.077Z" fill="#F9A826"/>
<path d="M130.718 225.079C130.718 225.079 185.98 214.828 194.237 229.81C202.495 244.793 135.8 252.678 135.8 252.678L130.718 225.079Z" fill="#A0616A"/>
<path d="M29.0874 151.744H25.1073C23.4704 151.738 21.8922 152.5 20.6891 153.878C16.911 158.233 8.92241 169.472 5.58528 189.594C1.13893 216.405 -6.48336 268.449 10.6668 272.392C27.817 276.334 140.246 257.409 140.246 257.409L131.988 221.136L50.6839 221.925C50.6839 221.925 51.9543 204.577 49.4135 193.537C46.8727 182.497 29.0874 151.744 29.0874 151.744Z" fill="#575A89"/>
<path d="M259.979 106.402C274.363 106.402 286.022 91.9274 286.022 74.0718C286.022 56.2161 274.363 41.7413 259.979 41.7413C245.596 41.7413 233.937 56.2161 233.937 74.0718C233.937 91.9274 245.596 106.402 259.979 106.402Z" fill="#D0CDE1"/>
<path d="M378.76 106.402C393.143 106.402 404.803 91.9274 404.803 74.0718C404.803 56.2161 393.143 41.7413 378.76 41.7413C364.377 41.7413 352.718 56.2161 352.718 74.0718C352.718 91.9274 364.377 106.402 378.76 106.402Z" fill="#3F3D56"/>
<path d="M497.541 107.191C492.265 107.191 487.107 105.248 482.72 101.609C478.333 97.9701 474.913 92.7976 472.894 86.7459C470.875 80.6942 470.346 74.035 471.376 67.6106C472.405 61.1861 474.946 55.2848 478.677 50.6531C482.408 46.0213 487.162 42.867 492.337 41.5891C497.512 40.3112 502.876 40.967 507.751 43.4738C512.625 45.9805 516.792 50.2254 519.723 55.6718C522.655 61.1182 524.219 67.5214 524.219 74.0718C524.211 82.8524 521.398 91.2706 516.397 97.4795C511.395 103.688 504.614 107.181 497.541 107.191V107.191ZM497.541 42.5298C492.516 42.5298 487.604 44.3797 483.425 47.8456C479.247 51.3115 475.991 56.2376 474.068 62.0012C472.145 67.7647 471.641 74.1067 472.622 80.2253C473.602 86.3438 476.022 91.9641 479.575 96.3753C483.129 100.787 487.656 103.791 492.584 105.008C497.513 106.225 502.622 105.6 507.264 103.213C511.907 100.825 515.875 96.7826 518.667 91.5955C521.459 86.4085 522.949 80.3102 522.949 74.0718C522.941 65.7092 520.262 57.6919 515.499 51.7787C510.736 45.8655 504.277 42.5393 497.541 42.5298Z" fill="#3F3D56"/>
<path d="M616.322 107.191C611.046 107.191 605.888 105.248 601.5 101.609C597.113 97.9701 593.694 92.7976 591.675 86.7459C589.655 80.6942 589.127 74.035 590.157 67.6106C591.186 61.1861 593.727 55.2848 597.458 50.6531C601.189 46.0213 605.942 42.867 611.117 41.5891C616.292 40.3112 621.656 40.967 626.531 43.4738C631.406 45.9805 635.573 50.2254 638.504 55.6718C641.435 61.1182 643 67.5214 643 74.0718C642.992 82.8524 640.179 91.2706 635.177 97.4795C630.176 103.688 623.395 107.181 616.322 107.191V107.191ZM616.322 42.5298C611.297 42.5298 606.384 44.3797 602.206 47.8456C598.028 51.3115 594.771 56.2376 592.848 62.0012C590.925 67.7647 590.422 74.1067 591.403 80.2253C592.383 86.3438 594.803 91.9641 598.356 96.3753C601.909 100.787 606.437 103.791 611.365 105.008C616.294 106.225 621.402 105.6 626.045 103.213C630.688 100.825 634.656 96.7826 637.448 91.5955C640.239 86.4085 641.73 80.3102 641.73 74.0718C641.722 65.7092 639.043 57.6919 634.279 51.7787C629.516 45.8655 623.058 42.5393 616.322 42.5298Z" fill="#3F3D56"/>
<path d="M256.389 87.8262L245.103 69.1463L249.169 65.3604L256.939 78.2217L292.661 33.8753L296.254 38.3353L256.389 87.8262Z" fill="#3F3D56"/>
<path d="M529.172 499.806H10.4779V502H529.172V499.806Z" fill="#3F3D56"/>
</g>
<defs>
<clipPath id="clip0">
<rect width="643" height="502" fill="white"/>
</clipPath>
</defs>
</svg>
